<?xml version="1.0" encoding="UTF-8" standalone="no"?>
<!-- Created with Inkscape (http://www.inkscape.org/) -->

<svg
   xmlns:dc="http://purl.org/dc/elements/1.1/"
   xmlns:cc="http://creativecommons.org/ns#"
   xmlns:rdf="http://www.w3.org/1999/02/22-rdf-syntax-ns#"
   xmlns:svg="http://www.w3.org/2000/svg"
   xmlns="http://www.w3.org/2000/svg"
   xmlns:sodipodi="http://sodipodi.sourceforge.net/DTD/sodipodi-0.dtd"
   xmlns:inkscape="http://www.inkscape.org/namespaces/inkscape"
   width="1920"
   height="1080"
   viewBox="0 0 508.00001 285.74999"
   version="1.1"
   id="svg8"
   inkscape:version="0.92.3 (2405546, 2018-03-11)"
   sodipodi:docname="Full.svg">
  <defs
     id="defs2">
    <inkscape:path-effect
       effect="spiro"
       id="path-effect960"
       is_visible="true" />
    <inkscape:path-effect
       effect="spiro"
       id="path-effect819"
       is_visible="true" />
    <inkscape:path-effect
       effect="spiro"
       id="path-effect839"
       is_visible="true" />
    <inkscape:path-effect
       effect="spiro"
       id="path-effect843"
       is_visible="true" />
  </defs>
  <sodipodi:namedview
     id="base"
     pagecolor="#ffffff"
     bordercolor="#666666"
     borderopacity="1.0"
     inkscape:pageopacity="0.0"
     inkscape:pageshadow="2"
     inkscape:zoom="0.35"
     inkscape:cx="1066.0602"
     inkscape:cy="432.82997"
     inkscape:document-units="mm"
     inkscape:current-layer="layer1"
     showgrid="false"
     units="px"
     inkscape:window-width="1853"
     inkscape:window-height="1025"
     inkscape:window-x="67"
     inkscape:window-y="27"
     inkscape:window-maximized="1" />
  <metadata
     id="metadata5">
    <rdf:RDF>
      <cc:Work
         rdf:about="">
        <dc:format>image/svg+xml</dc:format>
        <dc:type
           rdf:resource="http://purl.org/dc/dcmitype/StillImage" />
        <dc:title />
      </cc:Work>
    </rdf:RDF>
  </metadata>
  <g
     inkscape:label="Layer 1"
     inkscape:groupmode="layer"
     id="layer1"
     transform="translate(0,-11.25001)">
    <g
       id="g1093"
       style="fill:#ffffff">
      <path
         inkscape:connector-curvature="0"
         d="m 88.114061,267.19669 a 4.0934547,4.0973496 0 0 1 -4.093455,4.09735 4.0934547,4.0973496 0 0 1 -4.093454,-4.09735 4.0934547,4.0973496 0 0 1 4.093454,-4.09735 4.0934547,4.0973496 0 0 1 4.093455,4.09735 z m 3.727968,-24.83812 a 7.8214224,7.8288645 0 0 1 -7.821423,7.82887 7.8214224,7.8288645 0 0 1 -7.821422,-7.82887 7.8214224,7.8288645 0 0 1 7.821422,-7.82887 7.8214224,7.8288645 0 0 1 7.821423,7.82887 z m 3.094456,0 a 10.915879,10.926266 0 0 1 -10.915879,10.92627 10.915879,10.926266 0 0 1 -10.915879,-10.92627 10.915879,10.926266 0 0 1 10.915879,-10.92626 10.915879,10.926266 0 0 1 10.915879,10.92626 z m -36.53894,-75.20173 h 51.246135 c 2.30836,0 4.16672,0.22036 4.16672,0.49406 v 14.46118 c 0,0.2737 -1.85836,0.49404 -4.16672,0.49404 H 58.397545 c -2.308362,0 -4.166718,-0.22034 -4.166718,-0.49404 V 167.6509 c 0,-0.2737 1.858356,-0.49406 4.166718,-0.49406 z m 0,-15.44927 h 51.246135 c 2.30836,0 4.16672,0.22035 4.16672,0.49406 v 14.46117 c 0,0.2737 -1.85836,0.49404 -4.16672,0.49404 H 58.397545 c -2.308362,0 -4.166718,-0.22034 -4.166718,-0.49404 v -14.46117 c 0,-0.27371 1.858356,-0.49406 4.166718,-0.49406 z m 0,-15.44928 h 51.246135 c 2.30836,0 4.16672,0.22036 4.16672,0.49406 v 14.46117 c 0,0.27371 -1.85836,0.49405 -4.16672,0.49405 H 58.397545 c -2.308362,0 -4.166718,-0.22034 -4.166718,-0.49405 v -14.46117 c 0,-0.2737 1.858356,-0.49406 4.166718,-0.49406 z m -3.548847,-5.15755 h 58.343822 c 2.62807,0 4.74382,1.2142 4.74382,2.72242 v 79.68641 c 0,1.50821 -2.11575,2.72241 -4.74382,2.72241 H 54.848698 c -2.628074,0 -4.743816,-1.2142 -4.743816,-2.72241 v -79.68641 c 0,-1.50822 2.115742,-2.72242 4.743816,-2.72242 z m -3.764118,-4.47331 h 65.87205 c 2.96718,0 5.35592,2.32248 5.35592,5.20734 v 152.42154 c 0,2.88486 -2.38874,5.20734 -5.35592,5.20734 H 51.08458 c -2.967181,0 -5.355921,-2.32248 -5.355921,-5.20734 V 131.83477 c 0,-2.88486 2.38874,-5.20734 5.355921,-5.20734 z"
         style="opacity:0.903;fill:#ffffff;fill-opacity:1;stroke:#000000;stroke-width:2;stroke-linejoin:miter;stroke-miterlimit:4;stroke-dasharray:none;stroke-dashoffset:0;stroke-opacity:1"
         id="path847" />
      <path
         inkscape:connector-curvature="0"
         d="m 140.39143,77.124626 a 2.7245947,2.7359454 82.684539 0 1 -2.2046,3.168937 2.7245947,2.7359454 82.684539 0 1 -3.17939,-2.192421 2.7245947,2.7359454 82.684539 0 1 2.20461,-3.168928 2.7245947,2.7359454 82.684539 0 1 3.17938,2.192412 z m 9.83947,-1.784631 A 12.683234,12.736073 82.684533 0 1 139.96832,90.091646 12.683234,12.736073 82.684533 0 1 125.16795,79.885745 12.683234,12.736073 82.684533 0 1 135.43058,65.134087 12.683234,12.736073 82.684533 0 1 150.2309,75.339995 Z m -10.25034,0.686526 c 3.5024,2.092773 6.86612,2.256829 10.07946,-1.828149 m -10.15388,5.075708 c -0.93707,3.948752 -0.0741,7.171256 4.80173,8.940052 m -7.89939,-8.010275 c -4.04179,0.320659 -6.83369,2.119478 -6.99627,7.263681 m 5.13859,-9.885652 c -1.56447,-3.723585 -4.14954,-5.801384 -9.1066,-4.343084 m 11.03957,1.741 c 3.07569,-2.66255 4.26542,-5.782303 1.348,-10.055471 m 1.74879,11.1022 c 3.50241,2.092774 6.86613,2.25683 10.07946,-1.828148 M 96.782112,58.140891 139.62356,50.370642 140.5369,55.394854 97.695449,63.165106 Z M 88.945003,70.416749 103.7466,67.732143 c 1.57193,-0.285676 3.06939,0.760259 3.35732,2.343902 l 0.35027,1.922836 c 0.28774,1.583702 -0.74583,3.088121 -2.31785,3.373237 l -14.801579,2.684603 c -1.571915,0.285675 -3.069385,-0.760268 -3.357315,-2.343902 l -0.350285,-1.922835 c -0.287726,-1.583691 0.745831,-3.088099 2.317842,-3.373212 z m 62.565867,4.691179 a 13.978666,14.036902 82.68455 0 1 -11.31081,16.258346 13.978666,14.036902 82.68455 0 1 -16.31203,-11.248329 13.978666,14.036902 82.68455 0 1 11.3108,-16.258348 13.978666,14.036902 82.68455 0 1 16.31204,11.248331 z m 4.29894,-0.7799 A 18.329711,18.406074 82.68454 0 1 140.97836,95.646991 18.329711,18.406074 82.68454 0 1 119.58902,80.897487 18.329711,18.406074 82.68454 0 1 134.42045,59.578512 18.329711,18.406074 82.68454 0 1 155.80981,74.328028 Z M 82.529483,65.899238 154.48794,52.847935 c 1.1726,-0.211996 2.28732,0.556095 2.4996,1.723665 l 6.89738,37.935464 c 0.21208,1.167612 -0.56076,2.27872 -1.73325,2.491379 L 90.193223,108.04975 c -1.172628,0.21201 -2.287318,-0.5561 -2.499623,-1.72365 L 80.796232,68.390641 c -0.212081,-1.167617 0.560738,-2.278724 1.733229,-2.491398 z"
         style="opacity:0.903;fill:#ffffff;fill-opacity:1;stroke:#000000;stroke-width:0.99999982;stroke-linejoin:miter;stroke-miterlimit:4;stroke-dasharray:none;stroke-dashoffset:0;stroke-opacity:1"
         id="circle4546" />
      <g
         style="stroke-width:1.79925907;fill:#ffffff"
         transform="matrix(0.55115569,-0.05756435,0.05788061,0.55440661,343.23647,23.864756)"
         id="g876">
        <g
           style="stroke-width:1.60827863;fill:#ffffff"
           transform="matrix(1.1089932,-0.14823356,0.15018865,1.1085144,-74.581368,-34.492161)"
           id="g924">
          <rect
             ry="6.0362315"
             rx="4.6315899"
             y="118.78423"
             x="93.889191"
             height="157.42708"
             width="79.828766"
             id="rect815"
             style="opacity:0.903;fill:#ffffff;fill-opacity:1;stroke:#000000;stroke-width:1.60827851;stroke-linejoin:miter;stroke-miterlimit:4;stroke-dasharray:none;stroke-dashoffset:0;stroke-opacity:1" />
          <rect
             style="opacity:0.903;fill:#ffffff;fill-opacity:1;stroke:#000000;stroke-width:1.60827827;stroke-linejoin:miter;stroke-miterlimit:4;stroke-dasharray:none;stroke-dashoffset:0;stroke-opacity:1"
             id="rect817"
             width="79.828766"
             height="141.47372"
             x="93.889191"
             y="129.02895"
             rx="4.6315899"
             ry="7.2327075" />
          <g
             transform="translate(1.0690781,-0.66817382)"
             id="g861"
             style="stroke-width:1.60827863;fill:#ffffff">
            <circle
               style="opacity:0.903;fill:#ffffff;fill-opacity:1;stroke:#000000;stroke-width:1.286623;stroke-linejoin:miter;stroke-miterlimit:4;stroke-dasharray:none;stroke-dashoffset:0;stroke-opacity:1"
               id="path851"
               cx="109.35811"
               cy="124.34389"
               r="3.0690782" />
            <circle
               r="1.580797"
               cy="124.34389"
               cx="109.35811"
               id="circle853"
               style="opacity:0.903;fill:#ffffff;fill-opacity:1;stroke:#000000;stroke-width:0.80413932;stroke-linejoin:miter;stroke-miterlimit:4;stroke-dasharray:none;stroke-dashoffset:0;stroke-opacity:1" />
          </g>
          <rect
             ry="1"
             rx="1"
             y="122.42571"
             x="118.80357"
             height="2.5"
             width="30"
             id="rect855"
             style="opacity:0.903;fill:#ffffff;fill-opacity:1;stroke:#000000;stroke-width:1.286623;stroke-linejoin:miter;stroke-miterlimit:4;stroke-dasharray:none;stroke-dashoffset:0;stroke-opacity:1" />
          <circle
             r="1.580797"
             cy="123.67571"
             cx="155.37671"
             id="circle857"
             style="opacity:0.903;fill:#ffffff;fill-opacity:1;stroke:#000000;stroke-width:0.80413932;stroke-linejoin:miter;stroke-miterlimit:4;stroke-dasharray:none;stroke-dashoffset:0;stroke-opacity:1" />
        </g>
      </g>
      <g
         style="stroke-width:2.29080939;fill:#ffffff"
         id="g995"
         transform="matrix(0.42099158,0.11611999,-0.11591994,0.42066195,227.03754,-36.999746)">
        <g
           style="stroke-width:2.29080939;fill:#ffffff"
           id="g942"
           transform="translate(0,12.473214)">
          <path
             inkscape:connector-curvature="0"
             id="path826"
             d="m 67.356084,265.22188 c -3.032647,-0.36583 -5.411262,-1.01305 -8.133195,-2.21301 -1.223006,-0.53918 -2.006892,-1.05881 -3.871418,-2.5664 -2.723754,-2.20231 -5.013887,-5.74692 -6.576352,-10.17873 -0.974767,-2.76483 -1.039455,-3.04542 -1.466458,-6.36072 -0.399945,-3.10523 -0.471329,-5.52142 -0.248336,-8.40556 0.434042,-5.61378 0.947137,-10.86205 1.597169,-16.3368 0.6336,-5.33639 0.902669,-7.36429 1.173452,-8.84398 0.521982,-2.85236 1.031088,-5.66256 1.401942,-7.7385 0.193103,-1.08091 0.441075,-2.43515 0.551047,-3.00939 0.275292,-1.43749 0.605967,-3.18505 0.987814,-5.22041 0.552116,-2.94295 0.912335,-4.73091 1.28686,-6.38733 0.198577,-0.87826 0.555422,-2.48123 0.792987,-3.56216 0.237567,-1.08093 0.740567,-3.04319 1.117779,-4.36057 0.377211,-1.31738 0.875966,-3.07669 1.108346,-3.90959 0.356822,-1.27889 0.999544,-3.31931 2.134701,-6.7769 0.12199,-0.37155 0.511588,-1.5876 0.865768,-2.70231 0.85704,-2.69735 2.599617,-7.16654 4.933055,-12.65181 1.113519,-2.61758 1.549425,-3.46522 3.347916,-6.51015 3.062465,-5.18492 2.813759,-4.84062 4.490958,-6.21721 1.334719,-1.0955 1.649711,-1.28879 3.222121,-1.97714 0.958532,-0.41961 1.90852,-0.79038 2.111088,-0.82389 0.202566,-0.0336 1.224612,-0.20829 2.271211,-0.38837 2.879101,-0.49541 6.605341,-0.60962 9.391767,-0.28786 4.324169,0.49935 6.236381,0.86671 8.409609,1.61567 2.745125,0.94603 3.263465,1.14964 4.235325,1.66354 l 0.98197,0.51927 h 49.66007 49.66004 l 0.98196,-0.51927 c 0.97185,-0.5139 1.4902,-0.71751 4.23534,-1.66354 2.17324,-0.74896 4.08543,-1.11632 8.40961,-1.61567 2.78642,-0.32176 6.51267,-0.20755 9.39175,0.28786 1.04662,0.18008 2.06866,0.35486 2.27123,0.38837 0.20257,0.0336 1.15255,0.40428 2.11108,0.82389 1.57241,0.68835 1.88741,0.88164 3.22212,1.97714 1.6772,1.37659 1.4285,1.03229 4.49096,6.21721 1.79848,3.04493 2.2344,3.89257 3.34792,6.51015 2.33343,5.48527 4.07601,9.95446 4.93305,12.65181 0.35419,1.11471 0.74378,2.33076 0.86577,2.70231 1.13516,3.45759 1.77788,5.49801 2.1347,6.7769 0.23238,0.8329 0.73114,2.59221 1.10835,3.90959 0.3772,1.31738 0.88022,3.27964 1.11778,4.36057 0.23757,1.08093 0.59441,2.6839 0.793,3.56216 0.37451,1.65642 0.73473,3.44438 1.28684,6.38733 0.38185,2.03536 0.71253,3.78292 0.98783,5.22041 0.10991,0.57424 0.35793,1.92848 0.55103,3.00939 0.37085,2.07594 0.87997,4.88614 1.40195,7.7385 0.27077,1.47969 0.53986,3.50759 1.17343,8.84398 0.65005,5.47475 1.16315,10.72302 1.59717,16.3368 0.223,2.88414 0.15163,5.30033 -0.24833,8.40556 -0.427,3.3153 -0.49168,3.59589 -1.46644,6.36072 -1.56248,4.43181 -3.85261,7.97642 -6.57637,10.17873 -1.86452,1.50759 -2.64839,2.02722 -3.87139,2.5664 -2.88485,1.27178 -5.52256,1.95012 -8.89347,2.28719 -3.56691,0.35666 -9.78832,-0.84404 -12.98388,-2.50582 -2.10684,-1.09559 -3.43262,-2.0738 -5.35458,-3.95074 -1.56812,-1.53142 -1.90787,-1.94142 -3.04956,-3.68009 -1.11457,-1.6974 -2.39372,-4.04789 -3.52242,-6.47256 -0.27453,-0.58974 -1.27053,-3.37808 -2.34197,-6.5564 -0.15941,-0.47291 -0.50753,-1.4955 -0.77357,-2.27243 -0.57119,-1.66804 -0.85242,-2.55588 -1.36182,-4.29914 -0.20727,-0.70937 -0.70493,-2.39525 -1.10591,-3.74641 -0.40097,-1.35116 -1.06978,-3.61743 -1.48622,-5.03615 -1.15867,-3.94722 -1.45079,-4.81058 -2.01317,-5.94976 -0.48401,-0.9804 -0.56656,-1.07714 -1.21716,-1.42645 -0.83002,-0.44563 -1.05858,-0.71572 -1.06381,-1.25716 -0.006,-0.56252 0.30906,-0.9826 0.85914,-1.14748 0.43177,-0.12942 0.5433,-0.10461 1.45308,0.3225 0.84545,0.39695 1.04404,0.55198 1.39782,1.09126 0.80618,1.22894 1.54446,3.02126 2.15626,5.23484 0.0654,0.23645 0.57254,1.94997 1.12706,3.80783 1.29394,4.33514 2.67882,8.99599 2.8833,9.70381 0.0878,0.304 0.36192,1.13314 0.60908,1.8425 0.24717,0.70936 0.58043,1.67666 0.74055,2.14956 2.26302,6.68325 3.33893,9.11489 5.5694,12.58727 0.88383,1.37594 1.33237,1.9217 2.65915,3.23555 1.81534,1.79769 3.23606,2.84309 5.09488,3.74898 3.1624,1.5412 8.58749,2.52397 11.87265,2.15073 3.03741,-0.34508 4.96779,-0.85729 7.74396,-2.05482 0.95086,-0.41015 2.35251,-1.36707 3.91792,-2.67484 1.20306,-1.00503 2.78272,-3.24144 4.064,-5.75363 0.86777,-1.70143 2.09584,-5.36997 2.30265,-6.87865 0.0973,-0.70937 0.27016,-1.92541 0.38425,-2.70234 0.48252,-3.28613 0.19483,-8.30834 -1.18216,-20.63594 -0.66919,-5.99108 -1.12119,-9.61094 -1.37275,-10.99357 -0.13515,-0.74313 -0.40701,-2.23556 -0.60397,-3.31649 -0.19699,-1.08094 -0.54932,-3.01556 -0.78301,-4.29916 -0.23366,-1.28361 -0.54038,-2.94186 -0.68156,-3.68499 -0.14124,-0.74316 -0.33966,-1.82102 -0.44103,-2.39524 -0.10135,-0.57425 -0.26341,-1.43102 -0.36006,-1.90393 -0.0967,-0.47289 -0.31881,-1.63366 -0.49365,-2.5795 -0.40644,-2.19871 -0.48811,-2.58777 -1.41804,-6.75581 -0.58286,-2.61237 -0.97326,-4.14825 -1.70158,-6.6944 -1.08899,-3.80699 -1.28173,-4.44336 -2.21375,-7.30857 -0.46147,-1.41871 -1.12922,-3.49153 -1.48389,-4.60624 -0.62915,-1.97739 -1.11518,-3.28277 -2.81264,-7.55423 -0.79149,-1.99167 -2.79674,-6.753 -3.3357,-7.9204 -0.26957,-0.58392 -3.47802,-6.05423 -4.29903,-7.32973 -0.56722,-0.88122 -2.50987,-2.53089 -3.48096,-2.95597 -2.23062,-0.97644 -2.47983,-1.05281 -4.59565,-1.40826 -2.79681,-0.46989 -6.54122,-0.60149 -8.72469,-0.30667 -0.77651,0.10491 -1.77093,0.22724 -2.20982,0.27196 -1.73941,0.17723 -4.42323,0.80423 -6.3358,1.48017 -1.07308,0.37926 -2.04958,0.71864 -2.16999,0.75419 -0.12035,0.0356 -0.72812,0.34787 -1.35045,0.69409 l -1.13152,0.62949 h -50.39629 -50.39632 l -1.13152,-0.62949 c -0.62233,-0.34622 -1.23003,-0.65855 -1.35044,-0.69409 -0.1205,-0.0356 -1.096913,-0.37493 -2.169999,-0.75419 -1.912559,-0.67594 -4.596382,-1.30294 -6.335793,-1.48017 -0.438891,-0.0446 -1.433313,-0.1671 -2.209827,-0.27196 -2.183465,-0.29482 -5.927874,-0.16322 -8.724706,0.30667 -2.115793,0.35545 -2.365017,0.43182 -4.595636,1.40826 -0.971092,0.42508 -2.913744,2.07475 -3.480962,2.95597 -0.821003,1.2755 -4.029452,6.74581 -4.299029,7.32973 -0.538962,1.1674 -2.544208,5.92873 -3.335693,7.9204 -1.697471,4.27146 -2.183497,5.57684 -2.812641,7.55423 -0.354666,1.11471 -1.022425,3.18753 -1.483906,4.60624 -0.931997,2.86521 -1.12475,3.50158 -2.21374,7.30857 -0.728327,2.54615 -1.118713,4.08203 -1.701565,6.6944 -0.929942,4.16804 -1.011608,4.5571 -1.418053,6.75581 -0.174839,0.94584 -0.396977,2.10661 -0.49364,2.5795 -0.09666,0.47291 -0.258694,1.32968 -0.360065,1.90393 -0.101371,0.57422 -0.299837,1.65208 -0.44103,2.39524 -0.141188,0.74313 -0.447901,2.40138 -0.681569,3.68499 -0.233669,1.2836 -0.586018,3.21822 -0.782999,4.29916 -0.196981,1.08093 -0.46877,2.57336 -0.603976,3.31649 -0.1352,0.74314 -0.414493,2.76066 -0.620639,4.48341 -1.993008,16.65535 -2.4771,23.44925 -1.934265,27.1461 0.114086,0.77693 0.286985,1.99297 0.384232,2.70234 0.206831,1.50868 1.434891,5.17722 2.30267,6.87865 1.281275,2.51219 2.860938,4.7486 4.063985,5.75363 1.565408,1.30777 2.967065,2.26469 3.917922,2.67484 2.776177,1.19753 4.706555,1.70974 7.743978,2.05482 3.285141,0.37324 8.710237,-0.60953 11.872643,-2.15073 1.858822,-0.90589 3.279529,-1.95129 5.094879,-3.74898 1.32678,-1.31385 1.775314,-1.85961 2.659143,-3.23555 2.230475,-3.47238 3.306388,-5.90402 5.569401,-12.58727 0.160126,-0.4729 0.493384,-1.4402 0.740553,-2.14956 0.24717,-0.70936 0.521252,-1.5385 0.60908,-1.8425 0.204481,-0.70782 1.589364,-5.36867 2.883301,-9.70381 0.554531,-1.85786 1.061703,-3.57138 1.127055,-3.80783 0.611792,-2.21358 1.350068,-4.0059 2.156261,-5.23484 0.35378,-0.53928 0.55237,-0.69431 1.3978,-1.09126 0.9098,-0.42718 1.02134,-0.45193 1.4531,-0.3225 0.55007,0.16488 0.8646,0.58496 0.85915,1.14748 -0.006,0.54144 -0.23381,0.81153 -1.06382,1.25716 -0.6506,0.34931 -0.73316,0.44605 -1.21715,1.42645 -0.56239,1.13918 -0.85452,2.00254 -2.01317,5.94976 -0.416448,1.41872 -1.085255,3.68499 -1.486228,5.03615 -0.400973,1.35116 -0.898634,3.03704 -1.105914,3.74641 -0.509391,1.74326 -0.790621,2.6311 -1.361812,4.29914 -0.26605,0.77693 -0.614156,1.79952 -0.773571,2.27243 -1.071431,3.17832 -2.067449,5.96666 -2.341981,6.5564 -1.128693,2.42467 -2.407855,4.77516 -3.522425,6.47256 -1.141671,1.73867 -1.481425,2.14867 -3.049561,3.68009 -1.921939,1.87694 -3.247719,2.85515 -5.354565,3.95074 -2.182649,1.13505 -5.783892,2.07866 -9.300838,2.43706 -1.991592,0.20297 -2.723228,0.20208 -4.443301,-0.006 z m 65.469506,-47.11529 c -0.44385,-0.52775 -0.42864,-1.1259 0.0406,-1.59536 l 0.35792,-0.35811 h 19.9092 19.9092 l 0.35792,0.35811 c 0.46919,0.46946 0.48438,1.06761 0.0406,1.59536 l -0.31737,0.37738 h -19.9903 -19.99032 z"
             style="fill:#ffffff;fill-opacity:1;stroke:#000000;stroke-width:2.29080939;stroke-miterlimit:4;stroke-dasharray:none;stroke-opacity:1" />
          <g
             style="stroke-width:2.29080939;fill:#ffffff"
             id="g847">
            <circle
               style="opacity:0.903;fill:#ffffff;fill-opacity:1;stroke:#000000;stroke-width:2.29080939;stroke-linejoin:miter;stroke-miterlimit:4;stroke-dasharray:none;stroke-dashoffset:0;stroke-opacity:1"
               id="path828"
               cx="118.11283"
               cy="209.9651"
               r="15.601357" />
            <circle
               r="12.060037"
               cy="209.9651"
               cx="118.11283"
               id="circle843"
               style="opacity:0.903;fill:#ffffff;fill-opacity:1;stroke:#000000;stroke-width:2.29080915;stroke-linejoin:miter;stroke-miterlimit:4;stroke-dasharray:none;stroke-dashoffset:0;stroke-opacity:1" />
          </g>
          <g
             style="stroke-width:2.29080939;fill:#ffffff"
             transform="translate(69.837817)"
             id="g853">
            <circle
               r="15.601357"
               cy="209.9651"
               cx="118.11283"
               id="circle849"
               style="opacity:0.903;fill:#ffffff;fill-opacity:1;stroke:#000000;stroke-width:2.29080939;stroke-linejoin:miter;stroke-miterlimit:4;stroke-dasharray:none;stroke-dashoffset:0;stroke-opacity:1" />
            <circle
               style="opacity:0.903;fill:#ffffff;fill-opacity:1;stroke:#000000;stroke-width:2.29080915;stroke-linejoin:miter;stroke-miterlimit:4;stroke-dasharray:none;stroke-dashoffset:0;stroke-opacity:1"
               id="circle851"
               cx="118.11283"
               cy="209.9651"
               r="12.060037" />
          </g>
          <g
             style="stroke-width:2.29080939;fill:#ffffff"
             id="g913">
            <circle
               style="opacity:0.903;fill:#ffffff;fill-opacity:1;stroke:#000000;stroke-width:2.29080939;stroke-linejoin:miter;stroke-miterlimit:4;stroke-dasharray:none;stroke-dashoffset:0;stroke-opacity:1"
               id="path855"
               cx="91.28125"
               cy="172.26785"
               r="22" />
            <g
               style="stroke-width:2.29080939;fill:#ffffff"
               id="g865">
              <rect
                 ry="1.0000006"
                 rx="1.0000006"
                 y="168.39244"
                 x="96.226044"
                 height="7.7508163"
                 width="15.434815"
                 id="rect859"
                 style="opacity:0.903;fill:#ffffff;fill-opacity:1;stroke:#000000;stroke-width:2.29080939;stroke-linejoin:miter;stroke-miterlimit:4;stroke-dasharray:none;stroke-dashoffset:0;stroke-opacity:1" />
              <rect
                 style="opacity:0.903;fill:#ffffff;fill-opacity:1;stroke:#000000;stroke-width:2.29080939;stroke-linejoin:miter;stroke-miterlimit:4;stroke-dasharray:none;stroke-dashoffset:0;stroke-opacity:1"
                 id="rect861"
                 width="15.434815"
                 height="7.7508163"
                 x="70.901642"
                 y="168.39244"
                 rx="1.0000006"
                 ry="1.0000006" />
            </g>
            <g
               style="stroke-width:2.29080939;fill:#ffffff"
               id="g871"
               transform="rotate(-90,91.28125,172.26785)">
              <rect
                 style="opacity:0.903;fill:#ffffff;fill-opacity:1;stroke:#000000;stroke-width:2.29080939;stroke-linejoin:miter;stroke-miterlimit:4;stroke-dasharray:none;stroke-dashoffset:0;stroke-opacity:1"
                 id="rect867"
                 width="15.434815"
                 height="7.7508163"
                 x="96.226044"
                 y="168.39244"
                 rx="1.0000006"
                 ry="1.0000006" />
              <rect
                 ry="1.0000006"
                 rx="1.0000006"
                 y="168.39244"
                 x="70.901642"
                 height="7.7508163"
                 width="15.434815"
                 id="rect869"
                 style="opacity:0.903;fill:#ffffff;fill-opacity:1;stroke:#000000;stroke-width:2.29080939;stroke-linejoin:miter;stroke-miterlimit:4;stroke-dasharray:none;stroke-dashoffset:0;stroke-opacity:1" />
            </g>
          </g>
          <g
             style="stroke-width:2.29080939;fill:#ffffff"
             transform="translate(1.3229167)"
             id="g904">
            <circle
               r="22"
               cy="172.26785"
               cx="214.3125"
               id="circle857-9"
               style="opacity:0.903;fill:#ffffff;fill-opacity:1;stroke:#000000;stroke-width:2.29080939;stroke-linejoin:miter;stroke-miterlimit:4;stroke-dasharray:none;stroke-dashoffset:0;stroke-opacity:1" />
            <g
               style="stroke-width:2.29080939;fill:#ffffff"
               id="g879">
              <circle
                 r="7"
                 cy="172.26785"
                 cx="227.40871"
                 id="path873"
                 style="opacity:0.903;fill:#ffffff;fill-opacity:1;stroke:#000000;stroke-width:2.29080939;stroke-linejoin:miter;stroke-miterlimit:4;stroke-dasharray:none;stroke-dashoffset:0;stroke-opacity:1" />
              <circle
                 style="opacity:0.903;fill:#ffffff;fill-opacity:1;stroke:#000000;stroke-width:2.29080939;stroke-linejoin:miter;stroke-miterlimit:4;stroke-dasharray:none;stroke-dashoffset:0;stroke-opacity:1"
                 id="circle875"
                 cx="201.28311"
                 cy="172.26785"
                 r="7" />
            </g>
            <g
               style="stroke-width:2.29080939;fill:#ffffff"
               id="g885"
               transform="rotate(-90,214.34591,172.26786)">
              <circle
                 style="opacity:0.903;fill:#ffffff;fill-opacity:1;stroke:#000000;stroke-width:2.29080939;stroke-linejoin:miter;stroke-miterlimit:4;stroke-dasharray:none;stroke-dashoffset:0;stroke-opacity:1"
                 id="circle881"
                 cx="227.40871"
                 cy="172.26785"
                 r="7" />
              <circle
                 r="7"
                 cy="172.26785"
                 cx="201.28311"
                 id="circle883"
                 style="opacity:0.903;fill:#ffffff;fill-opacity:1;stroke:#000000;stroke-width:2.29080939;stroke-linejoin:miter;stroke-miterlimit:4;stroke-dasharray:none;stroke-dashoffset:0;stroke-opacity:1" />
            </g>
          </g>
          <g
             style="stroke-width:2.29080939;fill:#ffffff"
             transform="translate(-0.33408691,1.1358955)"
             id="g893">
            <rect
               style="opacity:0.903;fill:#ffffff;fill-opacity:1;stroke:#000000;stroke-width:2.29080939;stroke-linejoin:miter;stroke-miterlimit:4;stroke-dasharray:none;stroke-dashoffset:0;stroke-opacity:1"
               id="rect887"
               width="14.298919"
               height="6.4144688"
               x="137.57698"
               y="202.98795"
               rx="1.0000006"
               ry="1.0000006" />
            <rect
               ry="1.0000006"
               rx="1.0000006"
               y="202.98795"
               x="154.91609"
               height="6.4144688"
               width="14.298919"
               id="rect889"
               style="opacity:0.903;fill:#ffffff;fill-opacity:1;stroke:#000000;stroke-width:2.29080939;stroke-linejoin:miter;stroke-miterlimit:4;stroke-dasharray:none;stroke-dashoffset:0;stroke-opacity:1" />
          </g>
          <rect
             ry="3.7206705"
             rx="3.8066914"
             y="145.17749"
             x="118.92276"
             height="44.500374"
             width="68.421005"
             id="rect895"
             style="opacity:0.903;fill:#ffffff;fill-opacity:1;stroke:#000000;stroke-width:2.29080939;stroke-linejoin:miter;stroke-miterlimit:4;stroke-dasharray:none;stroke-dashoffset:0;stroke-opacity:1" />
        </g>
        <path
           style="fill:#ffffff;stroke:#000000;stroke-width:6.87242794;stroke-linecap:butt;stroke-linejoin:miter;stroke-miterlimit:4;stroke-dasharray:none;stroke-opacity:1"
           d="m 154.87829,155.23553 c 3.91512,-2.04966 7.26306,-5.16979 9.5831,-8.931 2.32004,-3.76121 3.60588,-8.15331 3.68058,-12.57187 0.083,-4.91203 -1.33977,-9.84145 -4.03992,-13.9456 -2.70016,-4.10416 -6.66788,-7.36422 -11.22337,-9.20336 -2.72677,-1.10085 -5.64231,-1.70093 -8.32469,-2.90592 -1.34119,-0.6025 -2.62455,-1.36011 -3.70691,-2.35525 -1.08235,-0.99514 -1.95924,-2.23807 -2.40049,-3.6406 -0.40254,-1.27949 -0.43118,-2.674195 -0.0815,-3.969132 0.34966,-1.294936 1.07644,-2.485661 2.06829,-3.38863"
           id="path958"
           inkscape:connector-curvature="0"
           inkscape:path-effect="#path-effect960"
           inkscape:original-d="m 154.87829,155.23553 c 4.39122,-7.13521 8.84271,-14.33552 13.26368,-21.50287 4.42097,-7.16735 -10.17527,-15.43291 -15.26329,-23.14896 -5.08802,-7.71605 -9.62114,-5.93479 -14.43209,-8.90177 -4.81096,-2.966981 1.32477,-4.905449 1.98678,-7.357762" />
      </g>
      <path
         inkscape:connector-curvature="0"
         d="m 196.11503,284.52489 h 107.11495 v 4.93876 H 196.11503 Z m 45.6783,-29.01384 h 15.75835 V 284.5249 H 241.79333 Z M 146.22689,122.66047 H 353.1181 V 248.13451 H 146.22689 Z m -1.06086,-7.34917 h 209.01293 c 3.69553,0 6.67063,2.977 6.67063,6.67489 v 126.82265 c 0,3.69789 -2.9751,6.67487 -6.67063,6.67487 H 145.16603 c -3.69553,0 -6.67062,-2.97698 -6.67062,-6.67487 V 121.98619 c 0,-3.69789 2.97509,-6.67489 6.67062,-6.67489 z"
         style="opacity:0.903;fill:#ffffff;fill-opacity:1;stroke:#000000;stroke-width:2;stroke-linejoin:miter;stroke-miterlimit:4;stroke-dasharray:none;stroke-dashoffset:0;stroke-opacity:1"
         id="rect823" />
      <text
         transform="scale(0.99989951,1.0001005)"
         id="text1105"
         y="216.40378"
         x="249.69759"
         style="font-style:normal;font-variant:normal;font-weight:normal;font-stretch:normal;font-size:95.55691528px;line-height:1.25;font-family:'Segoe MDL2 Assets';-inkscape-font-specification:'Segoe MDL2 Assets, Normal';font-variant-ligatures:normal;font-variant-caps:normal;font-variant-numeric:normal;font-feature-settings:normal;text-align:center;letter-spacing:0px;word-spacing:0px;writing-mode:lr-tb;text-anchor:middle;fill:#ffffff;fill-opacity:1;stroke:#000000;stroke-width:1.49999988;stroke-miterlimit:4;stroke-dasharray:none;stroke-opacity:1"
         xml:space="preserve"><tspan
           style="font-style:normal;font-variant:normal;font-weight:normal;font-stretch:normal;font-size:95.55691528px;font-family:'Segoe MDL2 Assets';-inkscape-font-specification:'Segoe MDL2 Assets, Normal';font-variant-ligatures:normal;font-variant-caps:normal;font-variant-numeric:normal;font-feature-settings:normal;text-align:center;writing-mode:lr-tb;text-anchor:middle;fill:#ffffff;fill-opacity:1;stroke:#000000;stroke-width:1.49999988;stroke-miterlimit:4;stroke-dasharray:none;stroke-opacity:1"
           y="216.40378"
           x="249.69759"
           id="tspan1103"
           sodipodi:role="line">&lt;/&gt;</tspan></text>
      <g
         style="stroke-width:1.97098875;fill:#ffffff"
         id="g856"
         transform="matrix(0.50433645,-0.05819687,0.05807724,0.50369908,338.83202,150.29159)">
        <g
           id="g823"
           style="stroke-width:3.49556541;stroke-miterlimit:4;stroke-dasharray:none;fill:#ffffff"
           transform="matrix(1.2717254,0,0,1,-18.993838,0)">
          <rect
             ry="10"
             rx="3.2388039"
             y="130.69048"
             x="69.925591"
             height="140.60715"
             width="82.020836"
             id="rect815-4"
             style="opacity:0.903;fill:#ffffff;fill-opacity:1;stroke:#000000;stroke-width:3.49556541;stroke-linejoin:miter;stroke-miterlimit:4;stroke-dasharray:none;stroke-dashoffset:0;stroke-opacity:1" />
          <path
             inkscape:original-d="m 73.232885,130.881 c 12.347487,2.93059 24.69471,5.86138 37.041665,8.79238 12.34696,2.931 25.70265,-6.05398 38.55357,-9.08066"
             inkscape:path-effect="#path-effect819"
             inkscape:connector-curvature="0"
             id="path817"
             d="m 73.232885,130.881 c 11.466693,5.6891 24.241437,8.72137 37.041665,8.79238 13.32691,0.0739 26.66059,-3.0666 38.55357,-9.08066"
             style="fill:#ffffff;stroke:#000000;stroke-width:3.49556541;stroke-linecap:butt;stroke-linejoin:miter;stroke-miterlimit:4;stroke-dasharray:none;stroke-opacity:1" />
        </g>
        <path
           style="fill:#ffffff;stroke:#000000;stroke-width:3.9419775;stroke-linecap:butt;stroke-linejoin:miter;stroke-miterlimit:4;stroke-dasharray:none;stroke-opacity:1"
           d="m 174.32655,151.00402 c 12.79315,-0.77157 25.8258,3.90238 35.21276,12.62849 7.97928,7.41753 13.28447,17.6621 14.69982,28.46421 1.78119,13.59423 -2.75354,27.88571 -12.04672,37.96602 -9.29318,10.0803 -23.16968,15.75947 -36.8636,15.08697"
           id="path837"
           inkscape:connector-curvature="0"
           inkscape:path-effect="#path-effect839"
           inkscape:original-d="m 174.32655,151.00402 c 11.76012,3.74151 23.45316,8.88645 35.21276,12.62849 11.75959,3.74204 9.62196,18.66406 14.69982,28.46421 5.07786,9.80014 -32.42844,35.68021 -48.91032,53.05299"
           sodipodi:nodetypes="cssc" />
        <path
           style="fill:#ffffff;stroke:#000000;stroke-width:3.9419775;stroke-linecap:butt;stroke-linejoin:miter;stroke-miterlimit:4;stroke-dasharray:none;stroke-opacity:1"
           d="m 174.39337,159.48984 c 7.50702,-0.64309 15.19904,1.07349 21.72039,4.84721 5.68708,3.29094 10.45138,8.09809 13.91423,13.68216 3.35481,5.40985 5.5171,11.60041 5.92579,17.95291 0.44036,6.84474 -1.1832,13.79864 -4.54359,19.77795 -2.64751,4.71084 -6.34802,8.81128 -10.69078,12.02713 -4.15557,3.07724 -8.90088,5.3525 -13.89801,6.68173 -4.17191,1.10972 -8.51788,1.56243 -12.82894,1.33635"
           id="path841"
           inkscape:connector-curvature="0"
           inkscape:path-effect="#path-effect843"
           inkscape:original-d="m 174.39337,159.48984 c 6.59291,2.22698 14.94983,2.70879 21.72039,4.84721 6.77056,2.13842 9.37091,9.94012 13.91423,13.68216 4.54332,3.74203 3.6988,11.71636 5.92579,17.95291 2.22698,6.23656 -3.02879,13.18504 -4.54359,19.77795 -1.51479,6.59291 -7.12692,8.01782 -10.69078,12.02713 -3.56386,4.0093 -9.26508,4.45422 -13.89801,6.68173 -4.63294,2.22751 -8.55236,0.89064 -12.82894,1.33635"
           sodipodi:nodetypes="csccccsc" />
        <text
           xml:space="preserve"
           style="font-style:normal;font-variant:normal;font-weight:normal;font-stretch:normal;font-size:69.25824738px;line-height:1.25;font-family:'Segoe UI';-inkscape-font-specification:'Segoe UI, Normal';font-variant-ligatures:normal;font-variant-caps:normal;font-variant-numeric:normal;font-feature-settings:normal;text-align:start;letter-spacing:0px;word-spacing:0px;writing-mode:lr-tb;text-anchor:start;fill:#ffffff;fill-opacity:1;stroke:none;stroke-width:0.52149069"
           x="93.529266"
           y="219.21182"
           id="text847"><tspan
             sodipodi:role="line"
             id="tspan845"
             x="93.529266"
             y="219.21182"
             style="font-style:normal;font-variant:normal;font-weight:normal;font-stretch:normal;font-size:69.25824738px;font-family:'Segoe UI';-inkscape-font-specification:'Segoe UI, Normal';font-variant-ligatures:normal;font-variant-caps:normal;font-variant-numeric:normal;font-feature-settings:normal;text-align:start;writing-mode:lr-tb;text-anchor:start;stroke-width:0.52149069;fill:#ffffff">;-)</tspan></text>
      </g>
    </g>
  </g>
</svg>
